<?xml version="1.0" encoding="UTF-8" standalone="no"?>
<!-- Created with Inkscape (http://www.inkscape.org/) -->

<svg
   xmlns:osb="http://www.openswatchbook.org/uri/2009/osb"
   xmlns:dc="http://purl.org/dc/elements/1.1/"
   xmlns:cc="http://creativecommons.org/ns#"
   xmlns:rdf="http://www.w3.org/1999/02/22-rdf-syntax-ns#"
   xmlns:svg="http://www.w3.org/2000/svg"
   xmlns="http://www.w3.org/2000/svg"
   xmlns:sodipodi="http://sodipodi.sourceforge.net/DTD/sodipodi-0.dtd"
   xmlns:inkscape="http://www.inkscape.org/namespaces/inkscape"
   width="372pt"
   height="130pt"
   viewBox="0 0 465.00001 162.49999"
   id="svg4666"
   version="1.1"
   inkscape:version="0.92.3 (2405546, 2018-03-11)"
   sodipodi:docname="GaussBonnetSetup.svg">
  <sodipodi:namedview
     id="base"
     pagecolor="#ffffff"
     bordercolor="#666666"
     borderopacity="1.0"
     inkscape:pageopacity="0.0"
     inkscape:pageshadow="2"
     inkscape:zoom="2.042246"
     inkscape:cx="222.64928"
     inkscape:cy="128.1892"
     inkscape:document-units="px"
     inkscape:current-layer="layer6"
     showgrid="false"
     inkscape:window-width="1920"
     inkscape:window-height="1080"
     inkscape:window-x="1680"
     inkscape:window-y="0"
     inkscape:window-maximized="0"
     fit-margin-top="0"
     fit-margin-left="0"
     fit-margin-right="0"
     fit-margin-bottom="0"
     units="pt" />
  <defs
     id="defs4668">
    <marker
       inkscape:stockid="Arrow2Mend"
       orient="auto"
       refY="0.0"
       refX="0.0"
       id="marker3176"
       style="overflow:visible;"
       inkscape:isstock="true">
      <path
         id="path3174"
         style="fill-rule:evenodd;stroke-width:0.625;stroke-linejoin:round;stroke:#000000;stroke-opacity:1;fill:#000000;fill-opacity:1"
         d="M 8.7185878,4.0337352 L -2.2072895,0.016013256 L 8.7185884,-4.0017078 C 6.9730900,-1.6296469 6.9831476,1.6157441 8.7185878,4.0337352 z "
         transform="scale(0.6) rotate(180) translate(0,0)" />
    </marker>
    <marker
       inkscape:isstock="true"
       style="overflow:visible;"
       id="Arrow2Mend"
       refX="0.0"
       refY="0.0"
       orient="auto"
       inkscape:stockid="Arrow2Mend">
      <path
         transform="scale(0.6) rotate(180) translate(0,0)"
         d="M 8.7185878,4.0337352 L -2.2072895,0.016013256 L 8.7185884,-4.0017078 C 6.9730900,-1.6296469 6.9831476,1.6157441 8.7185878,4.0337352 z "
         style="fill-rule:evenodd;stroke-width:0.625;stroke-linejoin:round;stroke:#000000;stroke-opacity:1;fill:#000000;fill-opacity:1"
         id="path2444" />
    </marker>
    <marker
       inkscape:isstock="true"
       style="overflow:visible;"
       id="marker2958"
       refX="0.0"
       refY="0.0"
       orient="auto"
       inkscape:stockid="Arrow1Lend">
      <path
         transform="scale(0.8) rotate(180) translate(12.5,0)"
         style="fill-rule:evenodd;stroke:#000000;stroke-width:1pt;stroke-opacity:1;fill:#000000;fill-opacity:1"
         d="M 0.0,0.0 L 5.0,-5.0 L -12.5,0.0 L 5.0,5.0 L 0.0,0.0 z "
         id="path2956" />
    </marker>
    <marker
       inkscape:stockid="Arrow1Mend"
       orient="auto"
       refY="0.0"
       refX="0.0"
       id="Arrow1Mend"
       style="overflow:visible;"
       inkscape:isstock="true">
      <path
         id="path2426"
         d="M 0.0,0.0 L 5.0,-5.0 L -12.5,0.0 L 5.0,5.0 L 0.0,0.0 z "
         style="fill-rule:evenodd;stroke:#000000;stroke-width:1pt;stroke-opacity:1;fill:#000000;fill-opacity:1"
         transform="scale(0.4) rotate(180) translate(10,0)" />
    </marker>
    <marker
       inkscape:stockid="Arrow1Lend"
       orient="auto"
       refY="0.0"
       refX="0.0"
       id="marker2683"
       style="overflow:visible;"
       inkscape:isstock="true">
      <path
         id="path2681"
         d="M 0.0,0.0 L 5.0,-5.0 L -12.5,0.0 L 5.0,5.0 L 0.0,0.0 z "
         style="fill-rule:evenodd;stroke:#000000;stroke-width:1pt;stroke-opacity:1;fill:#000000;fill-opacity:1"
         transform="scale(0.8) rotate(180) translate(12.5,0)" />
    </marker>
    <marker
       inkscape:stockid="Arrow1Lend"
       orient="auto"
       refY="0.0"
       refX="0.0"
       id="Arrow1Lend"
       style="overflow:visible;"
       inkscape:isstock="true">
      <path
         id="path2420"
         d="M 0.0,0.0 L 5.0,-5.0 L -12.5,0.0 L 5.0,5.0 L 0.0,0.0 z "
         style="fill-rule:evenodd;stroke:#000000;stroke-width:1pt;stroke-opacity:1;fill:#000000;fill-opacity:1"
         transform="scale(0.8) rotate(180) translate(12.5,0)" />
    </marker>
    <linearGradient
       id="linearGradient7682"
       osb:paint="solid">
      <stop
         style="stop-color:#000000;stop-opacity:1;"
         offset="0"
         id="stop7684" />
    </linearGradient>
    <linearGradient
       id="linearGradient7433"
       osb:paint="solid">
      <stop
         style="stop-color:#000000;stop-opacity:1;"
         offset="0"
         id="stop7435" />
    </linearGradient>
    <marker
       inkscape:stockid="Arrow1Mstart"
       orient="auto"
       refY="0"
       refX="0"
       id="marker32370"
       style="overflow:visible"
       inkscape:isstock="true">
      <path
         id="path32372"
         d="M 0,0 5,-5 -12.5,0 5,5 0,0 Z"
         style="fill:#000000;fill-opacity:1;fill-rule:evenodd;stroke:#000000;stroke-width:1pt;stroke-opacity:1"
         transform="matrix(0.4,0,0,0.4,4,0)"
         inkscape:connector-curvature="0" />
    </marker>
    <marker
       inkscape:stockid="Arrow1Lstart"
       orient="auto"
       refY="0"
       refX="0"
       id="Arrow1Lstart-3-0-6"
       style="overflow:visible"
       inkscape:isstock="true">
      <path
         inkscape:connector-curvature="0"
         id="path5676-7-9-1"
         d="M 0,0 5,-5 -12.5,0 5,5 0,0 Z"
         style="fill:#000000;fill-opacity:1;fill-rule:evenodd;stroke:#000000;stroke-width:1pt;stroke-opacity:1"
         transform="matrix(0.8,0,0,0.8,10,0)" />
    </marker>
    <marker
       inkscape:stockid="Arrow1Mstart"
       orient="auto"
       refY="0"
       refX="0"
       id="Arrow1Mstart-4"
       style="overflow:visible"
       inkscape:isstock="true">
      <path
         inkscape:connector-curvature="0"
         id="path5730-5"
         d="M 0,0 5,-5 -12.5,0 5,5 0,0 Z"
         style="fill:#000080;fill-opacity:1;fill-rule:evenodd;stroke:#000080;stroke-width:1pt;stroke-opacity:1"
         transform="matrix(0.4,0,0,0.4,4,0)" />
    </marker>
    <marker
       inkscape:stockid="Arrow1Mstart"
       orient="auto"
       refY="0"
       refX="0"
       id="Arrow1Mstart-4-1"
       style="overflow:visible"
       inkscape:isstock="true">
      <path
         inkscape:connector-curvature="0"
         id="path5730-5-2"
         d="M 0,0 5,-5 -12.5,0 5,5 0,0 Z"
         style="fill:#ff0000;fill-opacity:1;fill-rule:evenodd;stroke:#ff0000;stroke-width:1pt;stroke-opacity:1"
         transform="matrix(0.4,0,0,0.4,4,0)" />
    </marker>
    <marker
       inkscape:stockid="Arrow1Mstart"
       orient="auto"
       refY="0"
       refX="0"
       id="Arrow1Mstart-9"
       style="overflow:visible"
       inkscape:isstock="true"
       inkscape:collect="always">
      <path
         inkscape:connector-curvature="0"
         id="path5730-52"
         d="M 0,0 5,-5 -12.5,0 5,5 0,0 Z"
         style="fill:#000000;fill-opacity:1;fill-rule:evenodd;stroke:#000000;stroke-width:1pt;stroke-opacity:1"
         transform="matrix(0.4,0,0,0.4,4,0)" />
    </marker>
    <pattern
       patternUnits="userSpaceOnUse"
       width="24.58303"
       height="1"
       patternTransform="translate(335.14117,481.22559)"
       id="pattern7428">
      <path
         inkscape:connector-curvature="0"
         id="path7426"
         d="m 0,0.5 24.58303,0"
         style="fill:none;fill-rule:evenodd;stroke:#000000;stroke-width:1px;stroke-linecap:butt;stroke-linejoin:miter;stroke-opacity:1" />
    </pattern>
    <pattern
       patternUnits="userSpaceOnUse"
       width="35.040541"
       height="35.040553"
       patternTransform="matrix(1.6666667,0,0,1.6666667,356.35663,392.36077)"
       id="pattern7545">
      <path
         inkscape:connector-curvature="0"
         id="path7511"
         d="M 0.35355344,34.686999 34.686987,0.35355332"
         style="fill:none;fill-rule:evenodd;stroke:#008000;stroke-width:1;stroke-linecap:butt;stroke-linejoin:miter;stroke-miterlimit:4;stroke-dasharray:none;stroke-opacity:1" />
    </pattern>
    <pattern
       patternUnits="userSpaceOnUse"
       width="120.53221"
       height="120.53225"
       patternTransform="matrix(1.6666667,0,0,1.6666667,123.8921,152.06215)"
       id="pattern7586">
      <path
         inkscape:connector-curvature="0"
         id="path7560"
         d="M 0.35355344,120.1787 120.17865,0.35355332"
         style="fill:none;fill-rule:evenodd;stroke:#008000;stroke-width:1;stroke-linecap:butt;stroke-linejoin:miter;stroke-miterlimit:4;stroke-dasharray:none;stroke-opacity:1" />
    </pattern>
    <pattern
       patternUnits="userSpaceOnUse"
       width="40.079548"
       height="40.079566"
       patternTransform="matrix(1.6666667,0,0,1.6666667,412.11762,286.86546)"
       id="pattern7610">
      <path
         inkscape:connector-curvature="0"
         id="path7560-1"
         d="M 0.53033021,39.549236 39.549218,0.53032996"
         style="display:inline;opacity:1;fill:none;fill-opacity:1;fill-rule:evenodd;stroke:#008000;stroke-width:1.5;stroke-linecap:butt;stroke-linejoin:miter;stroke-miterlimit:4;stroke-dasharray:none;stroke-opacity:1" />
    </pattern>
    <pattern
       patternUnits="userSpaceOnUse"
       width="40.079548"
       height="40.079566"
       patternTransform="matrix(1.6666667,0,0,1.6666667,508.12976,284.91509)"
       id="pattern7677">
      <path
         inkscape:connector-curvature="0"
         id="path7560-1-0-8-1"
         d="M 0.53033021,39.549236 39.549218,0.53032996"
         style="display:inline;opacity:1;fill:none;fill-opacity:1;fill-rule:evenodd;stroke:#000080;stroke-width:1.5;stroke-linecap:butt;stroke-linejoin:miter;stroke-miterlimit:4;stroke-dasharray:none;stroke-opacity:1" />
    </pattern>
    <pattern
       patternUnits="userSpaceOnUse"
       width="40.079548"
       height="40.079566"
       patternTransform="matrix(1.6666667,0,0,1.6666667,614.88702,287.80042)"
       id="pattern7705">
      <path
         inkscape:connector-curvature="0"
         id="path7560-1-0-8-9-4"
         d="M 39.549218,39.549236 0.53033021,0.53032996"
         style="display:inline;opacity:1;fill:none;fill-opacity:1;fill-rule:evenodd;stroke:#ff0000;stroke-width:1.5;stroke-linecap:butt;stroke-linejoin:miter;stroke-miterlimit:4;stroke-dasharray:none;stroke-opacity:1" />
    </pattern>
    <pattern
       patternUnits="userSpaceOnUse"
       width="40.079548"
       height="40.079566"
       patternTransform="matrix(1.6666667,0,0,1.6666667,412.11762,286.86546)"
       id="pattern8083">
      <path
         inkscape:connector-curvature="0"
         id="path8074"
         d="M 0.53033021,39.549236 39.549218,0.53032996"
         style="display:inline;opacity:0.5;fill:none;fill-opacity:1;fill-rule:evenodd;stroke:#008000;stroke-width:1.5;stroke-linecap:butt;stroke-linejoin:miter;stroke-miterlimit:4;stroke-dasharray:none;stroke-opacity:1" />
    </pattern>
    <pattern
       patternUnits="userSpaceOnUse"
       width="40.079548"
       height="40.079566"
       patternTransform="matrix(1.6666667,0,0,1.6666667,508.12976,284.91509)"
       id="pattern8092">
      <path
         inkscape:connector-curvature="0"
         id="path8090"
         d="M 0.53033021,39.549236 39.549218,0.53032996"
         style="display:inline;opacity:0.5;fill:none;fill-opacity:1;fill-rule:evenodd;stroke:#000080;stroke-width:1.5;stroke-linecap:butt;stroke-linejoin:miter;stroke-miterlimit:4;stroke-dasharray:none;stroke-opacity:1" />
    </pattern>
    <pattern
       patternUnits="userSpaceOnUse"
       width="40.079548"
       height="40.079566"
       patternTransform="matrix(1.6666667,0,0,1.6666667,614.88702,287.80042)"
       id="pattern8107">
      <path
         inkscape:connector-curvature="0"
         id="path8105"
         d="M 39.549218,39.549236 0.53033021,0.53032996"
         style="display:inline;opacity:0.5;fill:none;fill-opacity:1;fill-rule:evenodd;stroke:#ff0000;stroke-width:1.5;stroke-linecap:butt;stroke-linejoin:miter;stroke-miterlimit:4;stroke-dasharray:none;stroke-opacity:1" />
    </pattern>
    <marker
       inkscape:stockid="Arrow1Mstart"
       orient="auto"
       refY="0"
       refX="0"
       id="Arrow1Mstart-9-2"
       style="overflow:visible"
       inkscape:isstock="true"
       inkscape:collect="always">
      <path
         inkscape:connector-curvature="0"
         id="path5730-52-6"
         d="M 0,0 5,-5 -12.5,0 5,5 Z"
         style="fill:#000000;fill-opacity:1;fill-rule:evenodd;stroke:#000000;stroke-width:1.00000003pt;stroke-opacity:1"
         transform="matrix(0.4,0,0,0.4,4,0)" />
    </marker>
    <marker
       inkscape:stockid="Arrow2Mend"
       orient="auto"
       refY="0"
       refX="0"
       id="marker3176-0"
       style="overflow:visible"
       inkscape:isstock="true">
      <path
         inkscape:connector-curvature="0"
         id="path3174-4"
         style="fill:#000000;fill-opacity:1;fill-rule:evenodd;stroke:#000000;stroke-width:0.625;stroke-linejoin:round;stroke-opacity:1"
         d="M 8.7185878,4.0337352 -2.2072895,0.01601326 8.7185884,-4.0017078 c -1.7454984,2.3720609 -1.7354408,5.6174519 -6e-7,8.035443 z"
         transform="scale(-0.6)" />
    </marker>
  </defs>
  <metadata
     id="metadata4671">
    <rdf:RDF>
      <cc:Work
         rdf:about="">
        <dc:format>image/svg+xml</dc:format>
        <dc:type
           rdf:resource="http://purl.org/dc/dcmitype/StillImage" />
        <dc:title />
      </cc:Work>
    </rdf:RDF>
  </metadata>
  <g
     inkscape:groupmode="layer"
     id="layer6"
     inkscape:label="arrowsangles"
     style="display:inline;opacity:1"
     transform="translate(-145.40178,-459.10647)">
    <path
       inkscape:connector-curvature="0"
       id="path20813-1"
       d="m 225.98869,509.12614 0.94973,2.41653 -0.0575,0.64254"
       style="display:inline;fill:#000000;fill-rule:evenodd;stroke:#000000;stroke-width:0.81598747px;stroke-linecap:butt;stroke-linejoin:miter;stroke-opacity:1;marker-start:url(#Arrow1Mstart-9)"
       inkscape:transform-center-x="-11.432046"
       inkscape:transform-center-y="-3.6487176" />
    <ellipse
       ry="38.939579"
       rx="62.635365"
       style="display:inline;opacity:1;fill:none;fill-opacity:1;stroke:#000000;stroke-width:0.9375;stroke-miterlimit:10;stroke-dasharray:none;stroke-opacity:1"
       id="path5434"
       cx="242.25221"
       cy="519.85071" />
    <path
       inkscape:connector-curvature="0"
       id="path2090"
       d="m 248.91833,524.51667 c 9.86964,7.80391 37.18332,5.96769 42.69197,-0.45905"
       style="fill:none;fill-rule:evenodd;stroke:#000000;stroke-width:0.9375px;stroke-linecap:butt;stroke-linejoin:miter;stroke-opacity:1" />
    <path
       inkscape:connector-curvature="0"
       id="path2092"
       d="m 254.305,527.63483 c 4.869,-8.43959 29.21398,-5.51819 32.13538,-0.8115"
       style="fill:none;fill-rule:evenodd;stroke:#000000;stroke-width:0.9375px;stroke-linecap:butt;stroke-linejoin:miter;stroke-opacity:1" />
    <path
       sodipodi:nodetypes="cccc"
       inkscape:connector-curvature="0"
       id="path2094"
       d="m 231.01105,522.95318 c -9.28194,1.105 -28.28783,2.87298 -37.34877,-5.08296 13.70192,-9.28195 22.32086,-18.78489 27.18283,-19.22688 0,0 7.51396,13.70191 10.16594,24.30984 z"
       style="fill:none;fill-rule:evenodd;stroke:#000000;stroke-width:0.90266716px;stroke-linecap:butt;stroke-linejoin:miter;stroke-opacity:1" />
    <g
       transform="matrix(0.80781288,0,0,0.80781288,155.20642,297.49568)"
       id="g2328">
      <g
         style="font-style:normal;font-variant:normal;font-weight:normal;font-stretch:normal;letter-spacing:normal;word-spacing:normal;text-anchor:start;fill:none;fill-opacity:1;fill-rule:evenodd;stroke:#000000;stroke-linecap:butt;stroke-linejoin:miter;stroke-miterlimit:10.43299961;stroke-dasharray:none;stroke-dashoffset:0;stroke-opacity:1"
         id="g2326"
         transform="matrix(0.24761905,0,0,-0.24761905,-43.333333,372)"
         xml:space="preserve"
         stroke-miterlimit="10.433"
         font-style="normal"
         font-variant="normal"
         font-weight="normal"
         font-stretch="normal"
         font-size-adjust="none"
         letter-spacing="normal"
         word-spacing="normal"><path
           style="fill:#000000;stroke-width:0"
           inkscape:connector-curvature="0"
           d="M 489.25,414.28 H 488 c -0.25,-1.3 -0.45,-2.46 -0.89,-3.64 -0.25,-0.8 -0.4,-1.21 -3.29,-1.21 h -3.99 c 0.64,2.8 2.19,5.19 4.44,8.47 2.34,3.55 4.37,6.99 4.37,10.92 0,6.93 -6.71,12.5 -15.14,12.5 -8.56,0 -15.18,-5.68 -15.18,-12.5 0,-3.93 2.03,-7.37 4.37,-10.92 2.19,-3.28 3.78,-5.67 4.44,-8.47 h -3.99 c -2.89,0 -3.04,0.41 -3.29,1.16 -0.39,1.14 -0.64,2.44 -0.89,3.69 h -1.25 l 1.65,-8.08 h 7.97 c 1.1,0 1.24,0 1.24,1.05 0,3.48 -1.53,7.87 -2.69,11.06 -1.05,2.89 -2.44,6.83 -2.44,10.56 0,7.97 5.49,11.36 10.02,11.36 4.78,0 10.06,-3.59 10.06,-11.36 0,-3.73 -1.34,-7.53 -2.8,-11.61 -0.73,-2.09 -2.33,-6.58 -2.33,-10.01 0,-1.05 0.15,-1.05 1.29,-1.05 h 7.92 z"
           id="path2324" /></g>    </g>
    <ellipse
       ry="23.410164"
       rx="24.155067"
       cy="514.97546"
       cx="213.82573"
       id="path2709"
       style="color:#000000;clip-rule:nonzero;display:inline;overflow:visible;visibility:visible;opacity:1;isolation:auto;mix-blend-mode:normal;color-interpolation:sRGB;color-interpolation-filters:linearRGB;solid-color:#000000;solid-opacity:1;vector-effect:none;fill:none;fill-opacity:1;fill-rule:nonzero;stroke:#000000;stroke-width:1.18413568;stroke-linecap:butt;stroke-linejoin:miter;stroke-miterlimit:10;stroke-dasharray:1.18413559, 2.36827119;stroke-dashoffset:0;stroke-opacity:1;paint-order:normal;color-rendering:auto;image-rendering:auto;shape-rendering:auto;text-rendering:auto;enable-background:accumulate" />
    <path
       inkscape:transform-center-y="-19.184832"
       inkscape:transform-center-x="14.219608"
       style="display:inline;opacity:1;fill:#000000;fill-rule:evenodd;stroke:#000000;stroke-width:1.62750149px;stroke-linecap:butt;stroke-linejoin:miter;stroke-opacity:1;marker-start:url(#Arrow1Mstart-9-2)"
       d="m 369.14708,504.50253 3.95208,-3.34663 1.25012,-0.30453"
       id="path20813-1-4"
       inkscape:connector-curvature="0" />
    <path
       sodipodi:nodetypes="cccc"
       inkscape:connector-curvature="0"
       id="path2094-1"
       d="m 429.58264,533.43018 c -20.889,2.48679 -63.66172,6.46563 -84.05336,-11.43921 30.83615,-20.88901 50.23308,-42.27535 61.17493,-43.27006 -0.71301,-1.38323 10.96819,19.30878 22.87843,54.70927 z"
       style="display:inline;opacity:1;fill:none;fill-rule:evenodd;stroke:#000000;stroke-width:2.03145123px;stroke-linecap:butt;stroke-linejoin:miter;stroke-opacity:1" />
    <ellipse
       ry="51.729912"
       rx="53.375938"
       cy="518.49207"
       cx="395.13672"
       id="path2709-9"
       style="color:#000000;clip-rule:nonzero;display:inline;overflow:visible;visibility:visible;opacity:1;isolation:auto;mix-blend-mode:normal;color-interpolation:sRGB;color-interpolation-filters:linearRGB;solid-color:#000000;solid-opacity:1;vector-effect:none;fill:none;fill-opacity:1;fill-rule:nonzero;stroke:#000000;stroke-width:1.73547387;stroke-linecap:butt;stroke-linejoin:miter;stroke-miterlimit:10;stroke-dasharray:1.73547379, 3.47094757;stroke-dashoffset:0;stroke-opacity:1;paint-order:normal;color-rendering:auto;image-rendering:auto;shape-rendering:auto;text-rendering:auto;enable-background:accumulate" />
    <path
       style="fill:none;fill-rule:evenodd;stroke:#000000;stroke-width:0.9375px;stroke-linecap:butt;stroke-linejoin:miter;stroke-opacity:1;marker-end:url(#Arrow2Mend)"
       d="m 310.29847,516.76073 h 19.15139"
       id="path2954"
       inkscape:connector-curvature="0" />
    <g
       transform="matrix(0.78618991,0,0,0.78618991,145.66299,292.77233)"
       id="g3050">
      <g
         style="font-style:normal;font-variant:normal;font-weight:normal;font-stretch:normal;letter-spacing:normal;word-spacing:normal;text-anchor:start;fill:none;fill-opacity:1;fill-rule:evenodd;stroke:#000000;stroke-linecap:butt;stroke-linejoin:miter;stroke-miterlimit:10.43299961;stroke-dasharray:none;stroke-dashoffset:0;stroke-opacity:1"
         id="g3048"
         transform="matrix(0.24761905,0,0,-0.24761905,-43.333333,372)"
         xml:space="preserve"
         stroke-miterlimit="10.433"
         font-style="normal"
         font-variant="normal"
         font-weight="normal"
         font-stretch="normal"
         font-size-adjust="none"
         letter-spacing="normal"
         word-spacing="normal"><path
           style="fill:#000000;stroke-width:0"
           inkscape:connector-curvature="0"
           d="m 473.3,420.75 0.19,-0.5 0.2,-0.51 0.39,-1.05 0.4,-1.08 0.39,-1.1 0.39,-1.1 0.39,-1.09 0.37,-1.07 0.19,-0.53 0.18,-0.51 0.17,-0.5 0.18,-0.49 0.16,-0.47 0.17,-0.45 0.16,-0.44 0.15,-0.42 0.15,-0.39 0.14,-0.37 0.13,-0.35 0.13,-0.32 0.12,-0.29 0.12,-0.26 0.1,-0.23 0.1,-0.2 0.09,-0.16 0.08,-0.12 c 0.79,-1.1 1.29,-1.1 2.64,-1.1 h 1.09 c 0.5,0.05 0.55,0.35 0.55,0.5 0,0.14 -0.1,0.25 -0.25,0.46 -0.49,0.54 -0.8,1.28 -1.14,2.28 l -10.16,28.34 c -1.05,2.89 -3.75,3.55 -6.08,3.55 -0.25,0 -0.9,0 -0.9,-0.55 0,-0.41 0.4,-0.5 0.45,-0.5 1.64,-0.3 1.98,-0.59 3.23,-3.98 l 4.83,-13.55 -13.75,-13.66 c -0.59,-0.59 -0.89,-0.9 -0.89,-1.54 0,-0.85 0.7,-1.44 1.5,-1.44 0.8,0 1.23,0.55 1.64,1.05 z"
           id="path3046" /></g>    </g>
    <g
       transform="matrix(1.1810713,0,0,1.1810713,304.97086,198.88166)"
       id="g2328-2-8"
       style="display:inline;opacity:1">
      <g
         style="font-style:normal;font-variant:normal;font-weight:normal;font-stretch:normal;letter-spacing:normal;word-spacing:normal;text-anchor:start;fill:none;fill-opacity:1;fill-rule:evenodd;stroke:#000000;stroke-linecap:butt;stroke-linejoin:miter;stroke-miterlimit:10.43299961;stroke-dasharray:none;stroke-dashoffset:0;stroke-opacity:1"
         id="g2326-8-3"
         transform="matrix(0.24761905,0,0,-0.24761905,-43.333333,372)"
         xml:space="preserve"
         stroke-miterlimit="10.433"
         font-style="normal"
         font-variant="normal"
         font-weight="normal"
         font-stretch="normal"
         font-size-adjust="none"
         letter-spacing="normal"
         word-spacing="normal"><path
           style="fill:#000000;stroke-width:0"
           inkscape:connector-curvature="0"
           d="M 489.25,414.28 H 488 c -0.25,-1.3 -0.45,-2.46 -0.89,-3.64 -0.25,-0.8 -0.4,-1.21 -3.29,-1.21 h -3.99 c 0.64,2.8 2.19,5.19 4.44,8.47 2.34,3.55 4.37,6.99 4.37,10.92 0,6.93 -6.71,12.5 -15.14,12.5 -8.56,0 -15.18,-5.68 -15.18,-12.5 0,-3.93 2.03,-7.37 4.37,-10.92 2.19,-3.28 3.78,-5.67 4.44,-8.47 h -3.99 c -2.89,0 -3.04,0.41 -3.29,1.16 -0.39,1.14 -0.64,2.44 -0.89,3.69 h -1.25 l 1.65,-8.08 h 7.97 c 1.1,0 1.24,0 1.24,1.05 0,3.48 -1.53,7.87 -2.69,11.06 -1.05,2.89 -2.44,6.83 -2.44,10.56 0,7.97 5.49,11.36 10.02,11.36 4.78,0 10.06,-3.59 10.06,-11.36 0,-3.73 -1.34,-7.53 -2.8,-11.61 -0.73,-2.09 -2.33,-6.58 -2.33,-10.01 0,-1.05 0.15,-1.05 1.29,-1.05 h 7.92 z"
           id="path2324-8-8" /></g>    </g>
    <path
       inkscape:connector-curvature="0"
       id="path3172"
       d="m 418.38031,504.64787 -13.73582,7.93037"
       style="fill:none;fill-rule:evenodd;stroke:#000000;stroke-width:0.9375px;stroke-linecap:butt;stroke-linejoin:miter;stroke-opacity:1;marker-end:url(#marker3176)" />
    <path
       style="fill:none;fill-rule:evenodd;stroke:#000000;stroke-width:0.9375;stroke-linecap:butt;stroke-linejoin:miter;stroke-miterlimit:4;stroke-dasharray:1.87499999, 0.93749999;stroke-dashoffset:0;stroke-opacity:1"
       d="m 422.89957,534.76779 21.57551,-3.21337"
       id="path3385"
       inkscape:connector-curvature="0" />
    <path
       style="display:inline;opacity:1;fill:none;fill-rule:evenodd;stroke:#000000;stroke-width:0.9375;stroke-linecap:butt;stroke-linejoin:miter;stroke-miterlimit:4;stroke-dasharray:1.87499998, 0.93749999;stroke-dashoffset:0;stroke-opacity:1"
       d="m 424.95352,513.51492 6.46531,20.83335"
       id="path3385-3"
       inkscape:connector-curvature="0"
       inkscape:transform-center-x="-1.8362137"
       inkscape:transform-center-y="4.7683717e-06" />
    <g
       id="g3533"
       transform="translate(201.61276,229.76859)">
      <g
         word-spacing="normal"
         letter-spacing="normal"
         font-size-adjust="none"
         font-stretch="normal"
         font-weight="normal"
         font-variant="normal"
         font-style="normal"
         stroke-miterlimit="10.433"
         xml:space="preserve"
         transform="matrix(0.24761905,0,0,-0.24761905,-43.333333,372)"
         id="g3531"
         style="font-style:normal;font-variant:normal;font-weight:normal;font-stretch:normal;letter-spacing:normal;word-spacing:normal;text-anchor:start;fill:none;fill-opacity:1;fill-rule:evenodd;stroke:#000000;stroke-linecap:butt;stroke-linejoin:miter;stroke-miterlimit:10.43299961;stroke-dasharray:none;stroke-dashoffset:0;stroke-opacity:1"><path
           id="path3529"
           d="m 487.66,440.82 v 0.02 0.02 0.01 l -0.01,0.02 v 0.02 0.02 l -0.01,0.02 v 0.02 l -0.01,0.02 -0.01,0.02 -0.01,0.02 -0.01,0.02 -0.01,0.02 -0.01,0.02 -0.01,0.02 -0.02,0.02 -0.02,0.02 -0.01,0.02 -0.02,0.02 -0.02,0.02 -0.02,0.01 -0.03,0.02 -0.02,0.01 -0.03,0.02 -0.02,0.01 -0.03,0.01 -0.02,0.01 h -0.01 l -0.02,0.01 h -0.02 -0.01 l -0.02,0.01 h -0.02 -0.02 -0.02 -0.02 -0.02 -0.02 c -0.25,0 -0.31,-0.04 -0.9,-0.75 l -2.39,-2.84 c -1.3,2.34 -3.89,3.59 -7.13,3.59 -6.33,0 -12.3,-5.73 -12.3,-11.76 0,-4.03 2.65,-6.33 5.18,-7.06 l 5.32,-1.41 c 1.85,-0.44 4.6,-1.19 4.6,-5.28 0,-4.49 -4.1,-9.16 -8.97,-9.16 -3.19,0 -8.72,1.1 -8.72,7.27 0,1.2 0.25,2.39 0.3,2.69 0.04,0.2 0.09,0.25 0.09,0.35 0,0.5 -0.34,0.55 -0.59,0.55 -0.25,0 -0.35,-0.05 -0.5,-0.2 -0.21,-0.2 -2.99,-11.56 -2.99,-11.7 0,-0.3 0.25,-0.5 0.55,-0.5 0.25,0 0.3,0.04 0.89,0.75 l 2.45,2.82 c 2.14,-2.89 5.52,-3.57 8.41,-3.57 6.78,0 12.66,6.62 12.66,12.79 0,3.44 -1.69,5.14 -2.44,5.83 -1.14,1.16 -1.89,1.34 -6.33,2.5 -1.09,0.3 -2.89,0.8 -3.34,0.89 -1.35,0.45 -3.03,1.89 -3.03,4.53 0,4.05 3.98,8.28 8.71,8.28 4.15,0 7.18,-2.14 7.18,-7.73 0,-1.59 -0.21,-2.49 -0.21,-2.78 0,-0.05 0,-0.5 0.61,-0.5 0.5,0 0.55,0.15 0.74,1 z"
           inkscape:connector-curvature="0"
           style="fill:#000000;stroke-width:0" /></g>    </g>
    <g
       transform="translate(366.78326,247.52712)"
       id="g3741">
      <g
         style="font-style:normal;font-variant:normal;font-weight:normal;font-stretch:normal;letter-spacing:normal;word-spacing:normal;text-anchor:start;fill:none;fill-opacity:1;fill-rule:evenodd;stroke:#000000;stroke-linecap:butt;stroke-linejoin:miter;stroke-miterlimit:10.43299961;stroke-dasharray:none;stroke-dashoffset:0;stroke-opacity:1"
         id="g3739"
         transform="matrix(0.24761905,0,0,-0.24761905,-43.333333,372)"
         xml:space="preserve"
         stroke-miterlimit="10.433"
         font-style="normal"
         font-variant="normal"
         font-weight="normal"
         font-stretch="normal"
         font-size-adjust="none"
         letter-spacing="normal"
         word-spacing="normal"><path
           style="fill:#000000;stroke-width:0"
           inkscape:connector-curvature="0"
           d="m 470.36,417.46 0.15,0.01 h 0.16 0.15 0.07 l 0.08,0.01 h 0.07 l 0.07,0.01 0.07,0.01 0.07,0.01 0.07,0.01 0.07,0.02 0.06,0.01 0.06,0.02 0.06,0.02 0.06,0.03 0.06,0.02 0.05,0.03 0.05,0.03 0.04,0.04 0.04,0.04 0.04,0.04 0.04,0.05 0.01,0.02 0.02,0.03 0.01,0.02 0.01,0.03 0.02,0.03 0.01,0.03 v 0.03 l 0.01,0.03 0.01,0.04 0.01,0.03 v 0.04 0.03 l 0.01,0.04 v 0.04 c 0,0.69 -0.61,0.69 -1.46,0.69 h -8.06 c 1.19,4.23 3.99,7.12 8.52,7.12 h 1.54 c 0.85,0 1.64,0 1.64,0.86 0,0.69 -0.65,0.69 -1.5,0.69 h -1.73 c -6.48,0 -13.16,-4.99 -13.16,-12.6 0,-5.48 3.74,-9.42 9.02,-9.42 3.23,0 6.48,1.99 6.48,2.55 0,0.14 -0.06,0.69 -0.5,0.69 -0.11,0 -0.2,0 -0.65,-0.3 -1.55,-1 -3.39,-1.84 -5.24,-1.84 -2.89,0 -5.37,2.09 -5.37,6.48 0,1.73 0.4,3.63 0.54,4.23 z"
           id="path3737" /></g>    </g>
    <path
       style="fill:none;fill-rule:evenodd;stroke:#000000;stroke-width:0.9375px;stroke-linecap:butt;stroke-linejoin:miter;stroke-opacity:1"
       d="m 427.80359,521.45033 c 10.22489,-2.2722 11.52329,9.90029 11.52329,9.90029"
       id="path4066"
       inkscape:connector-curvature="0" />
    <path
       inkscape:connector-curvature="0"
       id="path3172-7"
       d="m 438.32098,526.37392 -3.0789,-3.20836"
       style="display:inline;opacity:1;fill:none;fill-rule:evenodd;stroke:#000000;stroke-width:0.9375px;stroke-linecap:butt;stroke-linejoin:miter;stroke-opacity:1;marker-end:url(#marker3176-0)"
       sodipodi:nodetypes="cc" />
    <g
       transform="translate(294.30238,223.70562)"
       id="g4219">
      <g
         style="font-style:normal;font-variant:normal;font-weight:normal;font-stretch:normal;letter-spacing:normal;word-spacing:normal;text-anchor:start;fill:none;fill-opacity:1;fill-rule:evenodd;stroke:#000000;stroke-linecap:butt;stroke-linejoin:miter;stroke-miterlimit:10.43299961;stroke-dasharray:none;stroke-dashoffset:0;stroke-opacity:1"
         id="g4217"
         transform="matrix(0.24761905,0,0,-0.24761905,-43.333333,372)"
         xml:space="preserve"
         stroke-miterlimit="10.433"
         font-style="normal"
         font-variant="normal"
         font-weight="normal"
         font-stretch="normal"
         font-size-adjust="none"
         letter-spacing="normal"
         word-spacing="normal"><path
           style="fill:#000000;stroke-width:0"
           inkscape:connector-curvature="0"
           d="m 460.64,425.98 v -13.66 c 0,-5.32 4.35,-6.42 7.88,-6.42 3.8,0 6.03,2.85 6.03,6.47 v 2.64 h -2.34 v -2.53 c 0,-3.39 -1.6,-4.59 -2.99,-4.59 -2.89,0 -2.89,3.18 -2.89,4.34 v 13.75 h 7.27 v 2.34 h -7.27 v 9.52 h -2.34 c -0.05,-4.98 -2.49,-9.92 -7.42,-10.06 v -1.8 z"
           id="path4215" /></g>    </g>
    <g
       id="g4451"
       transform="translate(334.00417,232.60353)">
      <g
         word-spacing="normal"
         letter-spacing="normal"
         font-size-adjust="none"
         font-stretch="normal"
         font-weight="normal"
         font-variant="normal"
         font-style="normal"
         stroke-miterlimit="10.433"
         xml:space="preserve"
         transform="matrix(0.24761905,0,0,-0.24761905,-43.333333,372)"
         id="g4449"
         style="font-style:normal;font-variant:normal;font-weight:normal;font-stretch:normal;letter-spacing:normal;word-spacing:normal;text-anchor:start;fill:none;fill-opacity:1;fill-rule:evenodd;stroke:#000000;stroke-linecap:butt;stroke-linejoin:miter;stroke-miterlimit:10.43299961;stroke-dasharray:none;stroke-dashoffset:0;stroke-opacity:1"><path
           id="path4447"
           d="m 477.89,415.67 -0.04,0.33 -0.06,0.36 -0.08,0.4 -0.08,0.42 -0.1,0.45 -0.12,0.48 -0.13,0.49 -0.14,0.51 -0.16,0.52 -0.18,0.54 -0.2,0.54 -0.21,0.55 -0.23,0.55 -0.26,0.55 -0.27,0.54 -0.29,0.54 -0.32,0.53 -0.33,0.51 -0.36,0.5 -0.38,0.48 -0.41,0.46 -0.43,0.44 -0.45,0.41 -0.48,0.37 -0.51,0.35 -0.54,0.31 -0.27,0.14 -0.29,0.12 -0.29,0.12 -0.3,0.11 -0.3,0.1 -0.31,0.08 -0.32,0.07 -0.33,0.07 -0.34,0.04 -0.34,0.04 -0.35,0.02 h -0.36 c -7.03,0 -11.22,-6.96 -11.22,-9.01 0,-0.75 0.71,-0.75 1.16,-0.75 0.55,0 0.94,0 1.19,0.61 1.09,3.19 5.23,3.67 7.83,3.67 2.73,0 6.03,-0.64 7.71,-3.03 1.35,-2 1.75,-6.08 1.75,-8.13 0,-1.98 -0.11,-2.34 -0.45,-3.39 -1.34,-4.03 -2.89,-9.4 -2.89,-11.25 0,-0.4 0,-1.75 1.19,-1.75 1.2,0 1.84,1.85 2.04,2.44 0.41,1.2 1.71,5.69 2.3,10.81 0.05,0.61 0.05,0.71 0.2,1.11 1.35,3.74 3.74,9.52 7.27,15.89 0.3,0.55 0.84,1.49 0.84,1.69 0,0.7 -0.68,0.7 -1.14,0.7 -0.5,0 -0.7,0 -0.95,-0.2 -0.09,-0.09 -2.73,-4.44 -6.27,-12.45 z"
           inkscape:connector-curvature="0"
           style="fill:#000000;stroke-width:0" /></g>    </g>
  </g>
  <flowRoot
     xml:space="preserve"
     id="flowRoot4270"
     style="font-style:normal;font-variant:normal;font-weight:normal;font-stretch:normal;line-height:0.01%;font-family:'Bitstream Charter';-inkscape-font-specification:'Bitstream Charter, Normal';text-align:start;letter-spacing:0px;word-spacing:0px;writing-mode:lr-tb;text-anchor:start;fill:#000000;fill-opacity:1;stroke:none;stroke-width:1px;stroke-linecap:butt;stroke-linejoin:miter;stroke-opacity:1"><flowRegion
       id="flowRegion4272"><rect
         id="rect4274"
         width="47.986385"
         height="58.26918"
         x="27.42079"
         y="97.86528" /></flowRegion><flowPara
       id="flowPara4276"
       style="font-size:20px;line-height:1.25"> </flowPara></flowRoot></svg>
